<?xml version="1.0" encoding="utf-8"?>
<svg viewBox="0 0 80 80" style="shape-rendering:geometricPrecision;text-rendering:geometricPrecision;image-rendering:optimizeQuality;" fill-rule="evenodd" clip-rule="evenodd" xmlns="http://www.w3.org/2000/svg">
  <defs>
    <style type="text/css">
   
    .fil1 {fill:none}
    .fil0 {fill:black}
   
  </style>
  </defs>
  <g transform="matrix(13.235327, 0, 0, 13.235327, -15.14712, -15.147259)">
    <path class="fil0" d="M5.15481 1.68666l-2.71465 0 0 2.21042c0,0.066252 -0.0537402,0.119992 -0.119992,0.119992 -0.066252,0 -0.119992,-0.0537402 -0.119992,-0.119992l0 -2.33041c0,-0.066252 0.0537402,-0.119992 0.119992,-0.119992l2.91464 0c0.0320866,0 0.0625157,0.0128268 0.0851772,0.0354921l0.77802 0.77802c0.0225512,0.0225472 0.0351496,0.0529488 0.0351496,0.0848386l3.93701e-006 1.55205c0,0.066252 -0.0537402,0.119992 -0.119992,0.119992 -0.066252,0 -0.119992,-0.0537402 -0.119992,-0.119992l0 -1.47206 -0.269189 0c-0.129106,0 -0.246421,-0.0527638 -0.331417,-0.137756 -0.0849921,-0.0849961 -0.137756,-0.202311 -0.137756,-0.331417l0 -0.269189zm-2.71465 4.96002l3.45301 0 0 -0.62522c0,-0.066252 0.0537402,-0.119992 0.119992,-0.119992 0.066252,0 0.119992,0.0537402 0.119992,0.119992l0 0.745213c0,0.066252 -0.0537402,0.119992 -0.119992,0.119992l-3.693 0c-0.066252,0 -0.119992,-0.0537402 -0.119992,-0.119992l0 -0.745213c0,-0.066252 0.0537402,-0.119992 0.119992,-0.119992 0.066252,0 0.119992,0.0537402 0.119992,0.119992l0 0.62522z" style="fill: rgb(40, 40, 40);"/>
    <polygon class="fil0" points="3.0052,2.8249 5.32812,2.8249 5.32812,3.02489 3.0052,3.02489 " style="fill: rgb(40, 40, 40);"/>
    <polygon class="fil0" points="3.0052,3.2995 5.32812,3.2995 5.32812,3.49949 3.0052,3.49949 " style="fill: rgb(40, 40, 40);"/>
    <polygon class="fil0" points="3.0052,2.3503 4.64759,2.3503 4.64759,2.5503 3.0052,2.5503 " style="fill: rgb(40, 40, 40);"/>
    <path class="fil0" d="M2.73558 4.45162l0.374669 0c0.0843937,0 0.148689,0.00638189 0.19313,0.0193858 0.0595709,0.0174921 0.11063,0.0486929 0.152941,0.0936063 0.0425512,0.0446772 0.074937,0.0995197 0.0971575,0.164291 0.0219843,0.0650039 0.0330945,0.144906 0.0330945,0.240169 0,0.0834449 -0.0104016,0.155543 -0.0312047,0.216059 -0.0252913,0.073752 -0.0614606,0.133555 -0.108736,0.179181 -0.0354606,0.034748 -0.0834449,0.0616969 -0.143961,0.0810787 -0.0451496,0.0144213 -0.105665,0.0215118 -0.181547,0.0215118l-0.385543 0 0 -1.01528zm0.983366 0.513906c0,-0.103535 0.0153661,-0.190291 0.0463307,-0.260496 0.0231654,-0.0515354 0.0546063,-0.0981024 0.0945551,-0.139232 0.0399488,-0.0408976 0.0836811,-0.0713898 0.131197,-0.091248 0.0633504,-0.0269488 0.136157,-0.040185 0.218894,-0.040185 0.149634,0 0.269244,0.0463307 0.359071,0.139232 0.0898268,0.0926654 0.13474,0.221732 0.13474,0.386965 0,0.164055 -0.0446772,0.292177 -0.133795,0.384839 -0.0891181,0.0924291 -0.208256,0.13876 -0.357181,0.13876 -0.151051,0 -0.271134,-0.0460945 -0.360252,-0.138051 -0.0891181,-0.092189 -0.133559,-0.21913 -0.133559,-0.380583zm1.37317 0.501378l0 -0.843429 -0.301157 0 0 -0.171854 0.806787 0 0 0.171854 -0.300445 0 0 0.843429 -0.205185 0zm-2.65196 0.634551l3.45301 0 0.239984 0 0.401661 0c0.0441811,0 0.08,-0.0358189 0.08,-0.08l0 -2.12438c0,-0.0441811 -0.0358189,-0.08 -0.08,-0.08l-0.401661 0 -0.239984 0 -3.45301 0 -0.239984 0 -0.401661 0c-0.0441811,0 -0.08,0.0358189 -0.08,0.08l0 2.12438c0,0.0441811 0.0358189,0.08 0.08,0.08l0.401661 0 0.239984 0z" style="fill: rgb(143, 63, 113);"/>
    <path class="fil0" d="M3.03248 4.62347l-0.0919528 0 0 0.672283 0.152937 0c0.0572087,0 0.0985748,-0.00307087 0.124106,-0.00968898 0.0330945,-0.00827559 0.060752,-0.0222205 0.0827362,-0.0420787 0.0219803,-0.0198543 0.0397126,-0.0527126 0.0536575,-0.0980984 0.0137126,-0.0453898 0.0208031,-0.107559 0.0208031,-0.186039 0,-0.0784803 -0.00709055,-0.138524 -0.0208031,-0.180598 -0.0139449,-0.0420787 -0.0333307,-0.074937 -0.0581496,-0.0983386 -0.0250591,-0.0236378 -0.0567323,-0.0394764 -0.0950276,-0.047748 -0.0286024,-0.00661811 -0.084626,-0.00969291 -0.168307,-0.00969291z" style="fill: rgb(143, 63, 113);"/>
    <path class="fil0" d="M4.00758 4.69652c-0.0515315,0.0579134 -0.0775354,0.145142 -0.0775354,0.262154 0,0.114886 0.0267126,0.20211 0.0796614,0.261445 0.053189,0.0593307 0.120559,0.0888819 0.202346,0.0888819 0.0815551,0 0.148689,-0.029315 0.201165,-0.0884094 0.0522441,-0.0588622 0.0784803,-0.147031 0.0784803,-0.264756 0,-0.116299 -0.0255276,-0.203055 -0.0763504,-0.260496 -0.0510591,-0.0572047 -0.118906,-0.085811 -0.203295,-0.085811 -0.084626,0 -0.152705,0.0290787 -0.204472,0.0869921z" style="fill: rgb(143, 63, 113);"/>
  </g>
</svg>